<svg xmlns="http://www.w3.org/2000/svg" viewBox="0 0 460 130"><defs><style>.a{fill:none;}.b{fill:#939292;}.c{fill:#c0bfbf;}.d{fill:#fff;}</style></defs><title>Jamf-NetSUS-color-CMYK</title><rect class="a" width="460" height="130"/><path class="b" d="M283.28,57.49c-.89-6.18-4.46-10-10-10-7.41,0-9.41,4.87-9.41,8.44,0,3.91,2.47,6.38,7.62,8.31l6.59,2.47c8.31,3.09,12.15,8,12.15,14.28,0,8.44-6.73,14.55-16.75,14.55-9.47,0-16.2-5-17-15.45H263c.55,5.7,3.43,9.68,10.78,9.68,5.7,0,9.82-3.64,9.82-8.24,0-4.05-3.36-6.66-8.1-8.51l-6.66-2.61c-7.76-3-11.6-7.55-11.6-14.28,0-9,7.48-14.42,16.06-14.42s15.38,5.15,16.13,15.72Z"/><path class="b" d="M298,42.59h6.59v31.3c0,8.51,4.74,15.51,13.87,15.51s13.87-7,13.87-15.51V42.59h6.59V75.82c0,11.26-8.51,19.77-20.59,19.77-11.81,0-20.32-8.51-20.32-19.77Z"/><path class="b" d="M373.48,57.49c-.89-6.18-4.46-10-10-10-7.41,0-9.41,4.87-9.41,8.44,0,3.91,2.47,6.38,7.62,8.31l6.59,2.47c8.31,3.09,12.15,8,12.15,14.28,0,8.44-6.73,14.55-16.75,14.55-9.47,0-16.2-5-17-15.45h6.59c.55,5.7,3.43,9.68,10.78,9.68,5.7,0,9.82-3.64,9.82-8.24,0-4.05-3.36-6.66-8.1-8.51l-6.66-2.61c-7.76-3-11.6-7.55-11.6-14.28,0-9,7.48-14.42,16.06-14.42s15.38,5.15,16.13,15.72Z"/><path class="c" d="M229.12,128.17a1,1,0,0,1-1-1V2.45a1,1,0,0,1,1.9,0V127.21A1,1,0,0,1,229.12,128.17Z"/><path class="d" d="M116.71,72c0-6.08-2.5-11.39-9.44-11.39-6.55,0-10.53,4.45-10.53,12.17V95.59h-7V54.94h7V59.7h.16C99,56,103.53,54,108.05,54c7.88,0,15.68,4.29,15.68,15.29V95.59h-7Z"/><path class="d" d="M173.11,87.71c-5.46,6.09-11.23,8.82-18.33,8.82-14.43,0-22.16-10.46-22.16-21.3,0-11.55,8.27-21.22,21-21.22,12.56,0,21.3,9.6,21.3,24h-34.8c1.09,6.94,6.71,12,14.59,12,5,0,9.44-2.34,13-6.55ZM167,72.19c-.7-6.71-6.16-11.63-13.42-11.63-8.58,0-12.72,6.09-13.42,11.63Z"/><path class="d" d="M185.36,45.11h7v9.83h6.48v6.16h-6.48v25c0,2.18.7,3,3.43,3H199v6.48c-1,.08-2.65.08-4.29.08-7.18,0-9.36-2.5-9.36-8.74V61.11h-5.62V54.94h5.62Z"/></svg>