<svg xmlns="http://www.w3.org/2000/svg" viewBox="0 0 318.7 83"><defs><style>.a{fill:none;}.b{fill:#778eb1;}.c{fill:#bfbfbf;}.d{fill:#929292;}.e{fill:#444545;}</style></defs><title>NetSUS-color</title><rect class="a" width="318.7" height="83"/><path class="b" d="M2.36,18.23A2.36,2.36,0,0,0,0,20.59V36.9a2.3,2.3,0,0,0,2.3,2.3h8.22c3.76,0,8.93-.77,10.34-7.45l2.24-10.65a2.37,2.37,0,0,0-2.32-2.86Z"/><path class="b" d="M33.81,26C28.26,26,25,28.3,23.49,33.32L19.62,45.26c-1.42,3.93-3.7,5.54-7.86,5.54H2.21A2.21,2.21,0,0,0,0,53V59.1a2.11,2.11,0,0,0,2.11,2.11H40.88a2.2,2.2,0,0,0,2.2-2.2V28.09A2.12,2.12,0,0,0,41,26Z"/><path class="c" d="M159.44,82.09a.61.61,0,0,1-.61-.61v-80a.61.61,0,0,1,1.22,0v80A.61.61,0,0,1,159.44,82.09Z"/><path class="d" d="M195.68,36.52c-.57-3.92-2.83-6.31-6.35-6.31-4.7,0-6,3.09-6,5.35,0,2.48,1.57,4,4.83,5.26l4.18,1.57c5.26,2,7.7,5,7.7,9,0,5.35-4.26,9.22-10.61,9.22-6,0-10.27-3.18-10.79-9.79h4.18c.35,3.61,2.17,6.13,6.83,6.13,3.61,0,6.22-2.31,6.22-5.22,0-2.57-2.13-4.22-5.13-5.39l-4.22-1.65c-4.92-1.91-7.35-4.79-7.35-9,0-5.7,4.74-9.14,10.18-9.14s9.74,3.26,10.22,10Z"/><path class="d" d="M205,27.08h4.18V46.92c0,5.39,3,9.83,8.79,9.83s8.79-4.44,8.79-9.83V27.08h4.18V48.14c0,7.13-5.39,12.53-13.05,12.53-7.48,0-12.88-5.39-12.88-12.53Z"/><path class="d" d="M252.84,36.52c-.57-3.92-2.83-6.31-6.35-6.31-4.7,0-6,3.09-6,5.35,0,2.48,1.57,4,4.83,5.26l4.18,1.57c5.26,2,7.7,5,7.7,9,0,5.35-4.26,9.22-10.61,9.22-6,0-10.27-3.18-10.79-9.79H240c.35,3.61,2.17,6.13,6.83,6.13,3.61,0,6.22-2.31,6.22-5.22,0-2.57-2.13-4.22-5.13-5.39l-4.22-1.65c-4.92-1.91-7.35-4.79-7.35-9,0-5.7,4.74-9.14,10.18-9.14s9.74,3.26,10.22,10Z"/><path class="e" d="M87.19,46c0-3.91-1.6-7.31-6.06-7.31-4.21,0-6.76,2.86-6.76,7.81V61.21H69.86V35.11h4.51v3.06h.1c1.35-2.35,4.26-3.66,7.16-3.66,5.06,0,10.07,2.75,10.07,9.82V61.21H87.19Z"/><path class="e" d="M123.41,56.16c-3.51,3.91-7.21,5.66-11.77,5.66-9.27,0-14.23-6.71-14.23-13.68,0-7.41,5.31-13.63,13.48-13.63s13.68,6.16,13.68,15.38H102.22a9.06,9.06,0,0,0,9.37,7.71A10.88,10.88,0,0,0,120,53.4Zm-4-10a8.71,8.71,0,0,0-17.23,0Z"/><path class="e" d="M131.28,28.8h4.51v6.31h4.16v4h-4.16v16c0,1.4.45,1.9,2.2,1.9H140v4.16c-.65,0-1.7,0-2.76,0-4.61,0-6-1.6-6-5.61V39.07h-3.61v-4h3.61Z"/></svg>